# xmcd
#
# Track frame offsets: 
#        150
#        23587
#        49030
#        69095
#        94107
#        117752
#        132552
#        149797
#        183835
#        220745
#        238762
#        272182
#        294927
#        320957
#
# Disc length: 4597 seconds
#
# Revision: 1
# Processed by: cddbd v1.5.2PL0 Copyright (c) Steve Scherf et al.
# Submitted via: ExactAudioCopy v1.3
#
DISCID=d411f30e
DTITLE=Michel Portal and Richad Galliano - Concerts
DYEAR=1998
DGENRE=Jazz
TTITLE0=Tango Pour Claude
TTITLE1=Traf
TTITLE2=Giselle
TTITLE3=Little Tango
TTITLE4=Oblivion
TTITLE5=Chorinho Pra Ele
TTITLE6=Ivan Ivanovitch Kossiakof
TTITLE7=Viaggio
TTITLE8=Libertango
TTITLE9=Indiffearence
TTITLE10=Mozambique
TTITLE11=Face to Face
TTITLE12=J F
TTITLE13=Beija Flor
EXTD=YEAR: 2004
EXTT0=
EXTT1=
EXTT2=
EXTT3=
EXTT4=
EXTT5=
EXTT6=
EXTT7=
EXTT8=
EXTT9=
EXTT10=
EXTT11=
EXTT12=
EXTT13=
PLAYORDER=
